<svg xmlns="http://www.w3.org/2000/svg" viewBox="0 0 32 32" id="Flag-Mexico--Streamline-Twemoji" height="32" width="32">
  <desc>
    Flag Mexico Streamline Emoji: https://streamlinehq.com
  </desc>
  <path fill="#006847" d="M3.5555555555555554 4.444444444444445C1.5919999999999999 4.444444444444445 0 6.036444444444444 0 8v16c0 1.9635555555555555 1.5919999999999999 3.5555555555555554 3.5555555555555554 3.5555555555555554h6.222222222222221V4.444444444444445H3.5555555555555554z" stroke-width="0.8889"></path>
  <path fill="#ce1126" d="M28.444444444444443 4.444444444444445h-6.222222222222221v23.11111111111111h6.222222222222221c1.9635555555555555 0 3.5555555555555554 -1.5919999999999999 3.5555555555555554 -3.5555555555555554V8c0 -1.9635555555555555 -1.5919999999999999 -3.5555555555555554 -3.5555555555555554 -3.5555555555555554z" stroke-width="0.8889"></path>
  <path fill="#eeeeee" d="M9.777777777777777 4.444444444444445h12.444444444444443v23.11111111111111H9.777777777777777z" stroke-width="0.8889"></path>
  <path fill="#a6d388" d="M20.444444444444443 16c0 2.455111111111111 -1.9893333333333332 4.444444444444445 -4.444444444444445 4.444444444444445 -2.454222222222222 0 -4.444444444444445 -1.9893333333333332 -4.444444444444445 -4.444444444444445h-0.8888888888888888c0 2.944888888888889 2.387555555555555 5.333333333333333 5.333333333333333 5.333333333333333s5.333333333333333 -2.388444444444444 5.333333333333333 -5.333333333333333h-0.8888888888888888z" stroke-width="0.8889"></path>
  <path d="M12.03822222222222 18.016888888888886c-0.08177777777777777 -0.15999999999999998 -0.24711111111111111 -0.2488888888888889 -0.416 -0.2408888888888889 -0.06133333333333334 0.0017777777777777776 -0.12444444444444445 0.017777777777777778 -0.1822222222222222 0.04711111111111111 -0.21955555555555553 0.1111111111111111 -0.30577777777777776 0.37955555555555553 -0.19466666666666665 0.5982222222222222 0.07999999999999999 0.15733333333333333 0.16799999999999998 0.31111111111111106 0.2631111111111111 0.45866666666666667v0.0008888888888888888l0.0035555555555555553 0.005333333333333333v0.0008888888888888888l0.007111111111111111 0.009777777777777776v0.0008888888888888888l0.0026666666666666666 0.005333333333333333 0.0008888888888888888 0.0017777777777777776 0.0035555555555555553 0.0044444444444444444v0.0008888888888888888l0.0026666666666666666 0.0044444444444444444v0.0017777777777777776l0.0026666666666666666 0.0044444444444444444 0.0008888888888888888 0.0017777777777777776 0.0026666666666666666 0.0044444444444444444 0.0008888888888888888 0.0017777777777777776 0.0026666666666666666 0.0035555555555555553 0.0017777777777777776 0.0026666666666666666 0.0017777777777777776 0.0026666666666666666 0.0008888888888888888 0.0026666666666666666 0.0026666666666666666 0.0044444444444444444 0.0008888888888888888 0.0008888888888888888 0.0017777777777777776 0.0026666666666666666 0.0026666666666666666 0.005333333333333333 0.0008888888888888888 0.0017777777777777776 0.0026666666666666666 0.0044444444444444444 0.0008888888888888888 0.0017777777777777776 0.006222222222222222 0.008888888888888889v0.0008888888888888888l0.0044444444444444444 0.006222222222222222v0.0008888888888888888c0.04622222222222222 0.06844444444444445 0.09333333333333332 0.13422222222222221 0.1431111111111111 0.2008888888888889 0.09066666666666666 0.12266666666666667 0.2328888888888889 0.18311111111111109 0.3742222222222222 0.17777777777777778 0.08533333333333333 -0.0035555555555555553 0.17155555555555554 -0.031999999999999994 0.24533333333333335 -0.088 0.19733333333333333 -0.14577777777777778 0.23822222222222222 -0.42488888888888887 0.09155555555555554 -0.6213333333333333 -0.14044444444444443 -0.2008888888888889 -0.2711111111111111 -0.41244444444444445 -0.3822222222222222 -0.6311111111111111zm-0.44177777777777777 -1.4062222222222223c-0.018666666666666668 -0.13866666666666666 -0.031999999999999994 -0.27999999999999997 -0.03822222222222222 -0.42399999999999993 -0.0044444444444444444 -0.10666666666666666 -0.0044444444444444444 -0.21155555555555552 -0.0026666666666666666 -0.3164444444444444 0.007111111111111111 -0.24444444444444446 -0.18577777777777776 -0.4497777777777778 -0.43111111111111106 -0.4568888888888889l-0.031999999999999994 0.0008888888888888888c-0.2311111111111111 0.009777777777777776 -0.41866666666666663 0.19644444444444442 -0.42488888888888887 0.43111111111111106 -0.0017777777777777776 0.09244444444444444 -0.0026666666666666666 0.18399999999999997 -0.0008888888888888888 0.27644444444444444v0.07999999999999999l0.0008888888888888888 0.0044444444444444444v0.024888888888888887l0.0008888888888888888 0.0026666666666666666 -0.0008888888888888888 0.0017777777777777776v0.0026666666666666666l0.0008888888888888888 0.0017777777777777776v0.025777777777777778l0.0008888888888888888 0.0026666666666666666v0.009777777777777776l0.0008888888888888888 0.016888888888888887 0.0008888888888888888 0.007999999999999998v0.009777777777777776c0.007999999999999998 0.14222222222222222 0.022222222222222223 0.28355555555555556 0.040888888888888884 0.42399999999999993 0.031999999999999994 0.22844444444444445 0.23199999999999998 0.3911111111111111 0.4577777777777778 0.3822222222222222 0.014222222222222221 -0.0008888888888888888 0.028444444444444442 -0.0017777777777777776 0.041777777777777775 -0.0044444444444444444 0.2497777777777778 -0.035555555555555556 0.41866666666666663 -0.2604444444444444 0.3848888888888889 -0.5039999999999999zm4.705777777777777 3.822222222222222 -0.005333333333333333 0.0008888888888888888 -0.11022222222222222 0.007111111111111111c-0.21066666666666664 0.007999999999999998 -0.42399999999999993 0.0026666666666666666 -0.6311111111111111 -0.018666666666666668 -0.021333333333333333 -0.0026666666666666666 -0.041777777777777775 -0.0026666666666666666 -0.0631111111111111 -0.0017777777777777776 -0.21777777777777776 0.008888888888888889 -0.40088888888888885 0.17777777777777778 -0.42311111111111105 0.39999999999999997 -0.023999999999999997 0.24355555555555555 0.15377777777777776 0.4613333333333333 0.3973333333333333 0.4862222222222222l0.1111111111111111 0.009777777777777776 0.0035555555555555553 0.0008888888888888888 0.0017777777777777776 -0.0008888888888888888 0.0026666666666666666 0.0008888888888888888h0.0017777777777777776l0.005333333333333333 0.0008888888888888888h0.005333333333333333l0.0026666666666666666 0.0008888888888888888h0.0008888888888888888l0.005333333333333333 -0.0008888888888888888 0.0026666666666666666 0.0008888888888888888h0.0044444444444444444l0.005333333333333333 0.0008888888888888888 0.0044444444444444444 0.0008888888888888888h0.011555555555555555l0.005333333333333333 0.0008888888888888888h0.011555555555555555c0.1351111111111111 0.008888888888888889 0.2711111111111111 0.013333333333333332 0.408 0.010666666666666666h0.034666666666666665l0.006222222222222222 -0.0008888888888888888 0.005333333333333333 0.0008888888888888888h0.013333333333333332l0.0044444444444444444 -0.0008888888888888888h0.016888888888888887l0.005333333333333333 -0.0008888888888888888h0.0008888888888888888l0.0044444444444444444 0.0008888888888888888 0.0008888888888888888 -0.0008888888888888888 0.005333333333333333 0.0008888888888888888h0.0008888888888888888l0.0044444444444444444 -0.0008888888888888888h0.007111111111111111l0.005333333333333333 -0.0008888888888888888h0.005333333333333333l0.0008888888888888888 0.0008888888888888888 0.005333333333333333 -0.0008888888888888888h0.006222222222222222l0.0044444444444444444 -0.0008888888888888888h0.017777777777777778l0.0044444444444444444 -0.0008888888888888888h0.0035555555555555553l0.0035555555555555553 -0.0008888888888888888 0.0035555555555555553 0.0008888888888888888h0.0044444444444444444l0.0035555555555555553 -0.0008888888888888888h0.0044444444444444444c0.037333333333333336 -0.0008888888888888888 0.07555555555555556 -0.0044444444444444444 0.11288888888888889 -0.006222222222222222 0.2391111111111111 -0.01955555555555555 0.41866666666666663 -0.22666666666666666 0.4026666666666667 -0.46755555555555556 -0.006222222222222222 -0.24177777777777779 -0.2151111111111111 -0.4293333333333333 -0.4568888888888889 -0.4204444444444444zm-2.168 -0.3982222222222222c-0.2231111111111111 -0.10311111111111111 -0.43999999999999995 -0.22666666666666666 -0.6435555555555555 -0.3653333333333333 -0.08177777777777777 -0.056888888888888885 -0.1768888888888889 -0.08088888888888889 -0.2693333333333333 -0.07733333333333332 -0.1351111111111111 0.005333333333333333 -0.26666666666666666 0.07111111111111111 -0.34933333333333333 0.1928888888888889 -0.13777777777777778 0.20177777777777778 -0.08711111111111111 0.4791111111111111 0.11555555555555555 0.6168888888888888l0.0008888888888888888 0.0008888888888888888 0.005333333333333333 0.0026666666666666666 0.005333333333333333 0.005333333333333333 0.005333333333333333 0.0035555555555555553 0.005333333333333333 0.0044444444444444444c0.23644444444444446 0.1608888888888889 0.4871111111111111 0.3022222222222222 0.7484444444444444 0.42311111111111105 0.06577777777777777 0.031111111111111114 0.13599999999999998 0.043555555555555556 0.20444444444444443 0.040888888888888884 0.16177777777777777 -0.007111111111111111 0.3128888888888888 -0.10044444444444445 0.3848888888888889 -0.25688888888888883 0.10577777777777776 -0.2231111111111111 0.008888888888888889 -0.488 -0.21333333333333332 -0.5911111111111111zm4.471111111111111 -0.3537777777777778c-0.07555555555555556 0.0035555555555555553 -0.152 0.026666666666666665 -0.22044444444444444 0.07111111111111111 -0.2071111111111111 0.13155555555555554 -0.4275555555555555 0.248 -0.6524444444444444 0.344 -0.22666666666666666 0.09422222222222222 -0.3333333333333333 0.3546666666666667 -0.23733333333333334 0.5822222222222222 0.07466666666666667 0.1751111111111111 0.248 0.2773333333333333 0.42666666666666664 0.2711111111111111 0.05244444444444444 -0.0017777777777777776 0.10311111111111111 -0.014222222222222221 0.15377777777777776 -0.033777777777777775l0.11911111111111111 -0.05333333333333333h0.0017777777777777776l0.005333333333333333 -0.0035555555555555553 0.0017777777777777776 -0.0008888888888888888 0.0035555555555555553 -0.0017777777777777776h0.0035555555555555553l0.0035555555555555553 -0.0017777777777777776 0.0017777777777777776 -0.0017777777777777776 0.005333333333333333 -0.0008888888888888888 0.0017777777777777776 -0.0017777777777777776 0.0026666666666666666 -0.0017777777777777776 0.0044444444444444444 -0.0017777777777777776 0.0026666666666666666 -0.0008888888888888888 0.0044444444444444444 -0.0017777777777777776 0.0017777777777777776 -0.0008888888888888888 0.0044444444444444444 -0.0017777777777777776 0.0017777777777777776 -0.0008888888888888888c0.0026666666666666666 -0.0017777777777777776 0.0026666666666666666 -0.0026666666666666666 0.0044444444444444444 -0.0026666666666666666l0.0017777777777777776 -0.0008888888888888888 0.005333333333333333 -0.0026666666666666666h0.0017777777777777776l0.005333333333333333 -0.0026666666666666666 0.005333333333333333 -0.0026666666666666666 0.0017777777777777776 -0.0008888888888888888 0.0044444444444444444 -0.0026666666666666666 0.0017777777777777776 -0.0008888888888888888 0.005333333333333333 -0.0026666666666666666 0.0008888888888888888 -0.0008888888888888888 0.006222222222222222 -0.0008888888888888888 0.006222222222222222 -0.0035555555555555553 0.0017777777777777776 -0.0008888888888888888 0.0035555555555555553 -0.0026666666666666666h0.0017777777777777776l0.005333333333333333 -0.0035555555555555553 0.007111111111111111 -0.0017777777777777776 0.005333333333333333 -0.0035555555555555553h0.0008888888888888888l0.006222222222222222 -0.0035555555555555553 0.0008888888888888888 -0.0008888888888888888 0.012444444444444444 -0.005333333333333333 0.006222222222222222 -0.0026666666666666666 0.012444444444444444 -0.007111111111111111 0.007111111111111111 -0.0026666666666666666 0.005333333333333333 -0.0026666666666666666h0.0008888888888888888l0.012444444444444444 -0.007111111111111111v-0.0008888888888888888l0.005333333333333333 -0.0017777777777777776h0.0008888888888888888l0.01955555555555555 -0.010666666666666666 0.006222222222222222 -0.0017777777777777776 0.012444444444444444 -0.007111111111111111 0.006222222222222222 -0.0035555555555555553h0.0008888888888888888c0.0008888888888888888 -0.0008888888888888888 0.0026666666666666666 -0.0017777777777777776 0.006222222222222222 -0.0017777777777777776 0.0017777777777777776 -0.0026666666666666666 0.0035555555555555553 -0.0035555555555555553 0.005333333333333333 -0.0044444444444444444l0.007111111111111111 -0.0035555555555555553 0.005333333333333333 -0.0026666666666666666v-0.0008888888888888888l0.012444444444444444 -0.005333333333333333h0.0008888888888888888l0.006222222222222222 -0.0035555555555555553 0.0008888888888888888 -0.0008888888888888888 0.0044444444444444444 -0.0026666666666666666h0.0008888888888888888l0.006222222222222222 -0.0035555555555555553 0.005333333333333333 -0.0026666666666666666h0.0017777777777777776l0.005333333333333333 -0.0035555555555555553v-0.0008888888888888888l0.006222222222222222 -0.0026666666666666666 0.0008888888888888888 -0.0008888888888888888 0.005333333333333333 -0.0026666666666666666v-0.0008888888888888888l0.005333333333333333 -0.0017777777777777776 0.0017777777777777776 -0.0008888888888888888 0.0035555555555555553 -0.0026666666666666666 0.0026666666666666666 -0.0008888888888888888 0.0044444444444444444 -0.0026666666666666666 0.0017777777777777776 -0.0008888888888888888 0.0044444444444444444 -0.0026666666666666666 0.0017777777777777776 -0.0008888888888888888 0.005333333333333333 -0.0017777777777777776c-0.0008888888888888888 -0.0008888888888888888 0 -0.0008888888888888888 0.0008888888888888888 -0.0008888888888888888l0.005333333333333333 -0.0026666666666666666 0.0017777777777777776 -0.0008888888888888888 0.0035555555555555553 -0.0026666666666666666 0.0017777777777777776 -0.0008888888888888888 0.005333333333333333 -0.0026666666666666666 0.0017777777777777776 -0.0008888888888888888c0 -0.0017777777777777776 0.0017777777777777776 -0.0017777777777777776 0.0035555555555555553 -0.0026666666666666666l0.0026666666666666666 -0.0008888888888888888 0.0035555555555555553 -0.0017777777777777776 0.0026666666666666666 -0.0017777777777777776 0.0035555555555555553 -0.0017777777777777776 0.0026666666666666666 -0.0017777777777777776 0.0026666666666666666 -0.0017777777777777776 0.0026666666666666666 -0.0026666666666666666 0.0044444444444444444 -0.0008888888888888888 0.0035555555555555553 -0.0008888888888888888 0.0017777777777777776 -0.0017777777777777776 0.0035555555555555553 -0.0017777777777777776 0.0035555555555555553 -0.0026666666666666666 0.0017777777777777776 -0.0008888888888888888 0.0035555555555555553 -0.0017777777777777776 0.0035555555555555553 -0.0026666666666666666 0.0026666666666666666 -0.0017777777777777776c0.0017777777777777776 0.0008888888888888888 0.0026666666666666666 0 0.0044444444444444444 -0.0008888888888888888l0.0017777777777777776 -0.0017777777777777776 0.0035555555555555553 -0.0017777777777777776 0.0026666666666666666 -0.0017777777777777776 0.0026666666666666666 -0.0017777777777777776 0.0035555555555555553 -0.0017777777777777776 0.0035555555555555553 -0.0026666666666666666 0.0017777777777777776 -0.0008888888888888888c0.0017777777777777776 -0.0008888888888888888 0.005333333333333333 -0.0008888888888888888 0.007111111111111111 -0.0026666666666666666 -0.0017777777777777776 -0.0008888888888888888 -0.0017777777777777776 -0.0008888888888888888 0 -0.0008888888888888888l0.0035555555555555553 -0.0017777777777777776 0.006222222222222222 -0.0044444444444444444 0.0017777777777777776 -0.0008888888888888888 0.006222222222222222 -0.0026666666666666666v-0.0008888888888888888l0.010666666666666666 -0.005333333333333333 0.007111111111111111 -0.0044444444444444444c0.005333333333333333 -0.0035555555555555553 0.010666666666666666 -0.007111111111111111 0.017777777777777778 -0.009777777777777776h0.0008888888888888888c0.055999999999999994 -0.033777777777777775 0.11377777777777777 -0.06844444444444445 0.1688888888888889 -0.104 0.20622222222222222 -0.13333333333333333 0.26755555555555555 -0.4062222222222222 0.1351111111111111 -0.6133333333333333 -0.10222222222222221 -0.13244444444444442 -0.2533333333333333 -0.20622222222222222 -0.4062222222222222 -0.19999999999999998zm2.2853333333333334 -4.104888888888889 -0.021333333333333333 0.0008888888888888888c-0.23644444444444446 0.009777777777777776 -0.42488888888888887 0.20355555555555555 -0.42577777777777776 0.44266666666666665 0 0.24622222222222223 -0.022222222222222223 0.4951111111111111 -0.06399999999999999 0.7368888888888888 -0.041777777777777775 0.2408888888888889 0.12177777777777778 0.472 0.36266666666666664 0.5128888888888888 0.031999999999999994 0.005333333333333333 0.0631111111111111 0.007999999999999998 0.09422222222222222 0.007111111111111111 0.20444444444444443 -0.008888888888888889 0.38399999999999995 -0.1591111111111111 0.4204444444444444 -0.37066666666666664v-0.0044444444444444444l0.0008888888888888888 -0.0017777777777777776 0.0008888888888888888 -0.0017777777777777776 -0.0008888888888888888 -0.0017777777777777776 0.0008888888888888888 -0.0017777777777777776v-0.0017777777777777776l0.0008888888888888888 -0.0017777777777777776v-0.0026666666666666666l0.0008888888888888888 -0.0017777777777777776v-0.007999999999999998c0.0017777777777777776 -0.0008888888888888888 0.0017777777777777776 -0.0026666666666666666 0.0017777777777777776 -0.0035555555555555553v-0.005333333333333333c0.018666666666666668 -0.11466666666666667 0.034666666666666665 -0.23022222222222222 0.04622222222222222 -0.34755555555555556l-0.0008888888888888888 -0.0008888888888888888 0.0008888888888888888 -0.0026666666666666666v-0.0008888888888888888l0.0008888888888888888 -0.0035555555555555553v-0.009777777777777776l0.0017777777777777776 -0.0026666666666666666v-0.0008888888888888888l-0.0008888888888888888 -0.0026666666666666666v-0.0017777777777777776l0.0008888888888888888 -0.0026666666666666666v-0.0035555555555555553l0.0017777777777777776 -0.0008888888888888888 -0.0017777777777777776 -0.0026666666666666666v-0.0035555555555555553c0.0017777777777777776 -0.0008888888888888888 0.0017777777777777776 -0.0017777777777777776 0.0017777777777777776 -0.0026666666666666666v-0.016888888888888887l0.0017777777777777776 -0.0026666666666666666v-0.0008888888888888888c0.011555555555555555 -0.14488888888888887 0.018666666666666668 -0.29155555555555557 0.018666666666666668 -0.43999999999999995 0 -0.24266666666666667 -0.19733333333333333 -0.44266666666666665 -0.44266666666666665 -0.44355555555555554zm-0.3937777777777778 2.3964444444444446c-0.07466666666666667 -0.040888888888888884 -0.15555555555555553 -0.058666666666666666 -0.23377777777777778 -0.05511111111111111 -0.15022222222222223 0.006222222222222222 -0.29244444444444445 0.08888888888888889 -0.37066666666666664 0.22933333333333333 -0.11911111111111111 0.2151111111111111 -0.25688888888888883 0.42311111111111105 -0.41155555555555556 0.615111111111111 -0.15288888888888888 0.1928888888888889 -0.12 0.472 0.07111111111111111 0.6239999999999999 0.08888888888888889 0.07022222222222221 0.1928888888888889 0.10044444444444445 0.296 0.09599999999999999 0.12444444444444445 -0.005333333333333333 0.24533333333333335 -0.06222222222222223 0.32888888888888884 -0.1671111111111111 0.10311111111111111 -0.12977777777777777 0.20177777777777778 -0.2657777777777778 0.29333333333333333 -0.40444444444444444 0.0017777777777777776 -0.006222222222222222 0.006222222222222222 -0.012444444444444444 0.009777777777777776 -0.017777777777777778l0.0008888888888888888 -0.0008888888888888888 0.0035555555555555553 -0.005333333333333333v-0.0008888888888888888l0.0035555555555555553 -0.006222222222222222c0.0017777777777777776 -0.0017777777777777776 0.0035555555555555553 -0.0035555555555555553 0.0035555555555555553 -0.005333333333333333l0.0008888888888888888 0.0008888888888888888 0.0035555555555555553 -0.005333333333333333v-0.0008888888888888888c0.0017777777777777776 -0.0017777777777777776 0.0026666666666666666 -0.0044444444444444444 0.0026666666666666666 -0.006222222222222222l0.0017777777777777776 -0.0008888888888888888 0.0035555555555555553 -0.005333333333333333v-0.0008888888888888888c0.0017777777777777776 -0.0008888888888888888 0.0017777777777777776 -0.0026666666666666666 0.0026666666666666666 -0.0044444444444444444l0.0008888888888888888 -0.0008888888888888888 0.0035555555555555553 -0.005333333333333333 0.0008888888888888888 -0.0017777777777777776 0.0017777777777777776 -0.0044444444444444444 0.0026666666666666666 -0.0017777777777777776 0.0017777777777777776 -0.0044444444444444444h0.0017777777777777776l0.0017777777777777776 -0.005333333333333333 0.0008888888888888888 -0.0017777777777777776 0.0035555555555555553 -0.0035555555555555553 0.0008888888888888888 -0.0017777777777777776c0.0008888888888888888 -0.0017777777777777776 0.0008888888888888888 -0.0035555555555555553 0.0026666666666666666 -0.0044444444444444444l0.0008888888888888888 -0.0026666666666666666 0.0035555555555555553 -0.0026666666666666666c0 -0.0008888888888888888 0 -0.0017777777777777776 0.0017777777777777776 -0.0026666666666666666v-0.0035555555555555553l0.0026666666666666666 -0.0017777777777777776 0.0026666666666666666 -0.0044444444444444444 0.0008888888888888888 -0.0017777777777777776 0.0026666666666666666 -0.005333333333333333 0.0017777777777777776 -0.0017777777777777776 0.0017777777777777776 -0.0035555555555555553 0.0017777777777777776 -0.0026666666666666666c0 -0.0008888888888888888 0 -0.0017777777777777776 0.0017777777777777776 -0.0026666666666666666 0 -0.0008888888888888888 0 -0.0017777777777777776 0.0017777777777777776 -0.0026666666666666666l0.0026666666666666666 -0.0044444444444444444 0.0008888888888888888 -0.0026666666666666666 0.0017777777777777776 -0.0026666666666666666 0.0017777777777777776 -0.0026666666666666666c0.0017777777777777776 -0.0008888888888888888 0.0017777777777777776 -0.0017777777777777776 0.0017777777777777776 -0.0026666666666666666 0.0017777777777777776 -0.0008888888888888888 0.0017777777777777776 -0.0017777777777777776 0.0017777777777777776 -0.0035555555555555553l0.0017777777777777776 -0.0026666666666666666 0.0026666666666666666 -0.0035555555555555553 0.0026666666666666666 -0.0035555555555555553v-0.0026666666666666666l0.0017777777777777776 -0.0026666666666666666 0.0026666666666666666 -0.0035555555555555553 0.0026666666666666666 -0.0026666666666666666v-0.0026666666666666666l0.0035555555555555553 -0.0044444444444444444v-0.0026666666666666666c0.0017777777777777776 -0.0008888888888888888 0.0026666666666666666 -0.0017777777777777776 0.0026666666666666666 -0.0035555555555555553l0.0017777777777777776 -0.0017777777777777776 0.0017777777777777776 -0.0026666666666666666 0.0026666666666666666 -0.0044444444444444444 0.0017777777777777776 -0.0026666666666666666v-0.0017777777777777776l0.0035555555555555553 -0.0044444444444444444c0 -0.0008888888888888888 0 -0.0017777777777777776 0.0017777777777777776 -0.0026666666666666666l0.0008888888888888888 -0.0026666666666666666 0.0026666666666666666 -0.0035555555555555553 0.0017777777777777776 -0.0035555555555555553 0.0017777777777777776 -0.0026666666666666666c0.0008888888888888888 -0.0008888888888888888 0 -0.0026666666666666666 0.0017777777777777776 -0.0035555555555555553 0 -0.0008888888888888888 0 -0.0017777777777777776 0.0017777777777777776 -0.0017777777777777776l0.0017777777777777776 -0.0044444444444444444 0.0017777777777777776 -0.0017777777777777776 0.0017777777777777776 -0.005333333333333333 0.0017777777777777776 -0.0008888888888888888 0.0017777777777777776 -0.0035555555555555553 0.0017777777777777776 -0.0017777777777777776 0.0017777777777777776 -0.0044444444444444444 0.0017777777777777776 -0.0017777777777777776 0.0017777777777777776 -0.005333333333333333c0.0017777777777777776 -0.0008888888888888888 0 -0.0017777777777777776 0 -0.0017777777777777776l0.0035555555555555553 -0.0044444444444444444 0.0008888888888888888 -0.0017777777777777776 0.0035555555555555553 -0.0044444444444444444v-0.0008888888888888888l0.0026666666666666666 -0.005333333333333333 0.0017777777777777776 -0.0017777777777777776 0.0017777777777777776 -0.005333333333333333v-0.0008888888888888888l0.0044444444444444444 -0.0044444444444444444 0.0026666666666666666 -0.005333333333333333v-0.0008888888888888888l0.0035555555555555553 -0.006222222222222222 0.0017777777777777776 -0.0008888888888888888 0.022222222222222223 -0.041777777777777775c0.11466666666666667 -0.208 0.03822222222222222 -0.4782222222222222 -0.1768888888888889 -0.5973333333333334z" fill="#5c913b" stroke-width="0.8889"></path>
  <path fill="#55acee" d="M13.333333333333332 18.666666666666664a2.6666666666666665 0.8888888888888888 0 1 0 5.333333333333333 0 2.6666666666666665 0.8888888888888888 0 1 0 -5.333333333333333 0" stroke-width="0.8889"></path>
  <path fill="#ffcc4d" d="M15.11111111111111 18.666666666666664a1.3333333333333333 0.8888888888888888 0 1 0 2.6666666666666665 0 1.3333333333333333 0.8888888888888888 0 1 0 -2.6666666666666665 0" stroke-width="0.8889"></path>
  <path fill="#5c913b" d="M16.99288888888889 18.91022222222222c-0.072 0 -0.14488888888888887 -0.017777777777777778 -0.21244444444444444 -0.05422222222222222 -0.21599999999999997 -0.11733333333333333 -0.296 -0.38755555555555554 -0.17866666666666667 -0.6026666666666667 0.14222222222222222 -0.2613333333333333 0.29155555555555557 -0.4986666666666667 0.4462222222222222 -0.7066666666666667 -0.12355555555555556 0.005333333333333333 -0.25155555555555553 0.007999999999999998 -0.3822222222222222 0.007999999999999998 -0.24533333333333335 0 -0.4693333333333333 -0.19999999999999998 -0.4693333333333333 -0.4453333333333333s0.17333333333333334 -0.4444444444444444 0.4195555555555555 -0.4444444444444444l0.07288888888888889 0.0008888888888888888c0.2631111111111111 0 0.5333333333333333 -0.015999999999999997 0.7751111111111111 -0.03822222222222222 0.14044444444444443 -0.015111111111111112 0.27466666666666667 0.041777777777777775 0.3644444444444444 0.13866666666666666 0.012444444444444444 -0.009777777777777776 0.024888888888888887 -0.01955555555555555 0.03822222222222222 -0.027555555555555555 0.08888888888888889 -0.058666666666666666 0.17155555555555554 -0.10577777777777776 0.2488888888888889 -0.1431111111111111 0.05244444444444444 -0.040888888888888884 0.11644444444444445 -0.07022222222222221 0.18755555555555553 -0.08355555555555555l0.031999999999999994 -0.006222222222222222c0.1671111111111111 -0.05422222222222222 0.28444444444444444 -0.06133333333333334 0.33155555555555555 -0.06133333333333334 0.14133333333333334 0 0.2737777777777778 0.06666666666666667 0.35733333333333334 0.18044444444444444 0.08355555555555555 0.11377777777777777 0.10844444444444444 0.25955555555555554 0.06666666666666667 0.39466666666666667 -0.07288888888888889 0.23644444444444446 -0.23555555555555555 0.28977777777777775 -0.5208888888888888 0.3466666666666667 -0.05333333333333333 0.020444444444444442 -0.1262222222222222 0.055999999999999994 -0.21155555555555552 0.11377777777777777 -0.1671111111111111 0.10933333333333332 -0.38399999999999995 0.09244444444444444 -0.5324444444444444 -0.030222222222222223 0.12177777777777778 0.15733333333333333 0.1271111111111111 0.38311111111111107 -0.0017777777777777776 0.5457777777777777 -0.1511111111111111 0.1928888888888889 -0.2995555555555556 0.42222222222222217 -0.4408888888888889 0.6826666666666666 -0.07999999999999999 0.14844444444444443 -0.2328888888888889 0.23199999999999998 -0.3902222222222222 0.23199999999999998zm-1.2622222222222221 -1.4124444444444444c-0.018666666666666668 0 -0.0391111111111111 -0.0008888888888888888 -0.058666666666666666 -0.0035555555555555553 -0.33244444444444443 -0.044444444444444446 -0.6479999999999999 -0.11022222222222222 -0.9386666666666666 -0.19644444444444442 -0.23555555555555555 -0.07022222222222221 -0.36977777777777776 -0.3173333333333333 -0.2995555555555556 -0.5528888888888889l0.005333333333333333 -0.017777777777777778 -0.010666666666666666 0.020444444444444442c-0.12 0.2142222222222222 -0.3911111111111111 0.29155555555555557 -0.6053333333333334 0.17066666666666666 -0.3022222222222222 -0.1688888888888889 -0.5733333333333334 -0.3724444444444444 -0.8062222222222222 -0.6053333333333334 -0.17333333333333334 -0.17333333333333334 -0.17333333333333334 -0.4551111111111111 0 -0.6284444444444444 0.17333333333333334 -0.17333333333333334 0.4551111111111111 -0.17333333333333334 0.6284444444444444 0 0.1751111111111111 0.1751111111111111 0.3804444444444444 0.32888888888888884 0.6115555555555555 0.4577777777777778 0.1902222222222222 0.10666666666666666 0.27199999999999996 0.33244444444444443 0.20355555555555555 0.5306666666666666 0.09333333333333332 -0.18933333333333333 0.31466666666666665 -0.28977777777777775 0.5244444444444444 -0.22755555555555554 0.24533333333333335 0.07288888888888889 0.5146666666666666 0.1288888888888889 0.7999999999999999 0.1671111111111111 0.24355555555555555 0.031999999999999994 0.4151111111111111 0.25511111111111107 0.38311111111111107 0.4986666666666667 -0.025777777777777778 0.22399999999999998 -0.21777777777777776 0.38666666666666666 -0.4373333333333333 0.38666666666666666zm-2.1795555555555555 -2.079111111111111c-0.37866666666666665 0 -0.8684444444444444 -0.14666666666666667 -1.165333333333333 -0.49688888888888894 -0.4551111111111111 -0.5368888888888889 -0.7226666666666666 -1.2257777777777776 -0.6817777777777777 -1.7537777777777777 0.010666666666666666 -0.14133333333333334 -0.1271111111111111 -0.25511111111111107 -0.2622222222222222 -0.2906666666666667 -0.07733333333333332 -0.020444444444444442 -0.21333333333333332 -0.032888888888888884 -0.2773333333333333 0.10488888888888888 -0.05244444444444444 0.11199999999999999 -0.18399999999999997 0.1591111111111111 -0.2951111111111111 0.10844444444444444 -0.1111111111111111 -0.051555555555555556 -0.15999999999999998 -0.18399999999999997 -0.10844444444444444 -0.2951111111111111 0.13866666666666666 -0.30133333333333334 0.4497777777777778 -0.43555555555555553 0.7928888888888889 -0.34844444444444445 0.3182222222222222 0.08266666666666667 0.6231111111111111 0.3688888888888889 0.5928888888888889 0.7555555555555555 -0.031999999999999994 0.4106666666666667 0.2008888888888889 0.9857777777777778 0.5777777777777777 1.4311111111111112 0.19822222222222222 0.23466666666666666 0.5431111111111111 0.3297777777777778 0.7777777777777777 0.33866666666666667 0.1911111111111111 0.009777777777777776 0.288 -0.033777777777777775 0.3084444444444444 -0.05244444444444444 -0.049777777777777775 -0.11822222222222223 -0.7084444444444444 -0.4648888888888889 -0.9893333333333333 -0.6124444444444443 -0.2391111111111111 -0.12533333333333332 -0.3102222222222222 -0.29777777777777775 -0.32799999999999996 -0.4195555555555555 -0.059555555555555556 -0.40444444444444444 0.35555555555555557 -0.8142222222222222 0.7573333333333333 -1.208888888888889 0.14133333333333334 -0.13955555555555554 0.27555555555555555 -0.2711111111111111 0.34844444444444445 -0.36799999999999994 0.08266666666666667 -0.10933333333333332 0.06933333333333333 -0.1822222222222222 0.05333333333333333 -0.22755555555555554 -0.06133333333333334 -0.16622222222222222 -0.3271111111111111 -0.33066666666666666 -0.6471111111111111 -0.4017777777777778 -0.296 -0.06577777777777777 -0.496 -0.20888888888888887 -0.5937777777777777 -0.42577777777777776 -0.1288888888888889 -0.2853333333333333 -0.060444444444444446 -0.6586666666666666 0.208 -1.142222222222222 0.059555555555555556 -0.10844444444444444 0.19555555555555554 -0.14577777777777778 0.3022222222222222 -0.08622222222222221 0.10755555555555554 0.059555555555555556 0.14577777777777778 0.19466666666666665 0.08622222222222221 0.3022222222222222 -0.2533333333333333 0.4551111111111111 -0.22844444444444445 0.6613333333333333 -0.1911111111111111 0.7439999999999999 0.037333333333333336 0.08177777777777777 0.13244444444444442 0.13955555555555554 0.28444444444444444 0.17333333333333334 0.37599999999999995 0.08355555555555555 0.8284444444444444 0.30666666666666664 0.9671111111111111 0.6817777777777777 0.0791111111111111 0.2142222222222222 0.0391111111111111 0.4453333333333333 -0.11377777777777777 0.6488888888888888 -0.09244444444444444 0.12355555555555556 -0.23822222222222222 0.26666666666666666 -0.39199999999999996 0.41866666666666663 -0.22933333333333333 0.22577777777777777 -0.6568888888888889 0.6462222222222221 -0.6293333333333333 0.8275555555555556 0.005333333333333333 0.037333333333333336 0.05422222222222222 0.07022222222222221 0.0951111111111111 0.09066666666666666 0.6675555555555556 0.3502222222222222 1.1111111111111112 0.6035555555555555 1.2017777777777778 0.9137777777777778 0.031999999999999994 0.10933333333333332 0.018666666666666668 0.21955555555555553 -0.037333333333333336 0.31911111111111107 -0.08622222222222221 0.15022222222222223 -0.2657777777777778 0.24266666666666667 -0.5199999999999999 0.2657777777777778 -0.03822222222222222 0.0035555555555555553 -0.07999999999999999 0.005333333333333333 -0.12177777777777778 0.005333333333333333z" stroke-width="0.8889"></path>
  <path fill="#ffcc4d" d="M16.88888888888889 16a0.4444444444444444 0.8888888888888888 0 1 0 0.8888888888888888 0 0.4444444444444444 0.8888888888888888 0 1 0 -0.8888888888888888 0" stroke-width="0.8889"></path>
  <path fill="#ffcc4d" d="M15.370666666666667 15.27822222222222c0 0.25599999999999995 -0.30666666666666664 0.4631111111111111 -0.6853333333333333 0.4631111111111111 -0.37777777777777777 0 -0.6853333333333333 -0.2071111111111111 -0.6853333333333333 -0.4631111111111111s0.30666666666666664 -0.4631111111111111 0.6853333333333333 -0.4631111111111111c0.37777777777777777 0 0.6853333333333333 0.2071111111111111 0.6853333333333333 0.4631111111111111zm-1.055111111111111 -4.112888888888889c0.044444444444444446 0.18844444444444444 -0.20177777777777778 0.40888888888888886 -0.5502222222222222 0.4915555555555556 -0.34844444444444445 0.08266666666666667 -0.6666666666666666 -0.0035555555555555553 -0.712 -0.19199999999999998 -0.044444444444444446 -0.18933333333333333 0.20177777777777778 -0.4097777777777778 0.5493333333333333 -0.49244444444444446 0.34933333333333333 -0.08177777777777777 0.6684444444444444 0.0035555555555555553 0.7128888888888889 0.1928888888888889z" stroke-width="0.8889"></path>
  <path fill="#c1694f" d="M20.029333333333334 15.959999999999997c0.07999999999999999 0.06222222222222223 0.21599999999999997 -0.6479999999999999 0.19555555555555554 -0.8693333333333333 0 -0.015111111111111112 -0.025777777777777778 -0.48533333333333334 0.07377777777777778 -0.8213333333333334 0.06133333333333334 -0.11377777777777777 0.06488888888888888 -0.9626666666666666 -0.029333333333333333 -1.1857777777777778 0.07466666666666667 -0.006222222222222222 0.16444444444444442 -0.030222222222222223 0.1751111111111111 -0.12088888888888889 -0.34488888888888886 0.1271111111111111 -0.42577777777777776 -0.7262222222222221 -0.7573333333333333 -1.216888888888889 -0.3217777777777778 -0.4915555555555556 -0.7208888888888889 -0.7777777777777777 -1.1377777777777778 -1.0764444444444445 0.031111111111111114 -0.08355555555555555 0.08088888888888889 -0.16177777777777777 0.144 -0.24 -0.5111111111111111 0.25599999999999995 -1.3075555555555556 -0.6711111111111111 -2.4844444444444442 -0.6017777777777777 -0.26399999999999996 0.025777777777777778 -0.3893333333333333 0.041777777777777775 -0.4568888888888889 0.20355555555555555 -0.21955555555555553 0.017777777777777778 -0.44266666666666665 0.06755555555555555 -0.44266666666666665 0.35644444444444445 0 0.06933333333333333 0.0631111111111111 0.19555555555555554 0.20355555555555555 0.19644444444444442 0.19199999999999998 0.055999999999999994 0.34844444444444445 0.012444444444444444 0.4791111111111111 0.28088888888888885l0.034666666666666665 0.2773333333333333s-0.17155555555555554 -0.21955555555555553 -0.2657777777777778 -0.2542222222222222l0.057777777777777775 -0.11822222222222223c-0.08888888888888889 -0.051555555555555556 -0.24622222222222223 -0.009777777777777776 -0.24622222222222223 -0.009777777777777776s-0.3422222222222222 -0.15999999999999998 -0.6168888888888888 -0.11733333333333333l-0.05333333333333333 -0.2222222222222222c-0.047999999999999994 0.1368888888888889 -0.15555555555555553 0.12977777777777777 -0.17066666666666666 0.25866666666666666 -0.030222222222222223 -0.09244444444444444 -0.07022222222222221 -0.2071111111111111 -0.09866666666666667 -0.2995555555555556 -0.09688888888888889 0.13155555555555554 -0.06844444444444445 0.2737777777777778 -0.10311111111111111 0.4106666666666667 -0.037333333333333336 0.031999999999999994 -0.11377777777777777 0.032888888888888884 -0.13333333333333333 -0.05511111111111111 -0.009777777777777776 -0.10844444444444444 -0.02311111111111111 -0.11822222222222223 -0.02311111111111111 -0.24711111111111111 -0.06933333333333333 0.12177777777777778 -0.15288888888888888 0.18133333333333332 -0.18044444444444444 0.3902222222222222l-0.07377777777777778 -0.2311111111111111c0.0026666666666666666 0.27288888888888885 -0.23199999999999998 0.43555555555555553 -0.4542222222222222 0.6284444444444444 -0.0631111111111111 0.11555555555555555 0.009777777777777776 0.11644444444444445 0.015111111111111112 0.176l0.11733333333333333 0.058666666666666666 0.21066666666666664 -0.015111111111111112c0.034666666666666665 0.043555555555555556 0.006222222222222222 0.04711111111111111 0.09777777777777777 0.07466666666666667 0.24533333333333335 0.06844444444444445 0.5511111111111111 -0.22577777777777777 0.7911111111111111 0.23733333333333334 -0.11022222222222222 0.09244444444444444 -0.22133333333333333 0.3084444444444444 -0.18577777777777776 0.34933333333333333 0.044444444444444446 0 -0.08888888888888889 0.06222222222222223 0.09066666666666666 0.005333333333333333 -0.18666666666666665 0.18133333333333332 -0.3128888888888888 0.4204444444444444 -0.3128888888888888 0.43466666666666665 -0.021333333333333333 0.051555555555555556 0.07466666666666667 -0.007111111111111111 0.05511111111111111 0.08622222222222221l0.044444444444444446 -0.005333333333333333c-0.42577777777777776 0.46044444444444443 -0.014222222222222221 0.9555555555555555 -0.059555555555555556 1.2213333333333334 0.07111111111111111 0.11466666666666667 0.07999999999999999 -0.0026666666666666666 0.1688888888888889 -0.014222222222222221 0.07466666666666667 0.3271111111111111 0.28977777777777775 0.5253333333333333 0.4213333333333333 0.7839999999999999l-0.2773333333333333 0.0026666666666666666c0.006222222222222222 0.12266666666666667 0.11733333333333333 0.2391111111111111 0.20533333333333334 0.3466666666666667l-0.18577777777777776 0.058666666666666666c-0.13244444444444442 0.06755555555555555 -0.21955555555555553 0.13955555555555554 -0.3128888888888888 0.24355555555555555 -0.06133333333333334 0.14933333333333335 0.296 0.18488888888888888 0.46844444444444444 0.21155555555555552l-0.006222222222222222 0.18044444444444444c0.2693333333333333 0.025777777777777778 0.5804444444444444 -0.05422222222222222 0.5804444444444444 -0.06933333333333333l0.06755555555555555 -0.05244444444444444 0.152 0.08355555555555555c0.050666666666666665 0 0.12977777777777777 -0.20266666666666666 0.09333333333333332 -0.3582222222222222 0.09777777777777777 0.11644444444444445 0.1902222222222222 0.304 0.288 0.4213333333333333l0.09155555555555554 -0.012444444444444444c0.08355555555555555 0.13244444444444442 0.19822222222222222 0.26399999999999996 0.28177777777777774 0.39644444444444443l0.09333333333333332 0.035555555555555556c0.05422222222222222 -0.018666666666666668 0.10044444444444445 -0.024888888888888887 0.12977777777777777 -0.13155555555555554l0.042666666666666665 0.07466666666666667 0.14755555555555555 -0.10133333333333333 0.10311111111111111 -0.020444444444444442 0.07733333333333332 0.1262222222222222c0.04533333333333333 -0.016888888888888887 0.08977777777777778 -0.11555555555555555 0.09244444444444444 -0.22044444444444444 0.04622222222222222 0.09155555555555554 0.058666666666666666 0.08444444444444445 0.09244444444444444 0.10844444444444444l0.06844444444444445 -0.144 0.3688888888888889 0.34488888888888886 0.2791111111111111 0.015999999999999997c0.09955555555555555 0.06755555555555555 0.3724444444444444 0.11022222222222222 0.41866666666666663 0.0008888888888888888 0.22399999999999998 0.09599999999999999 0.488 -0.012444444444444444 0.4746666666666667 -0.11911111111111111 0.20622222222222222 0.08177777777777777 0.5235555555555556 0.026666666666666665 0.5235555555555556 0.013333333333333332 0.03822222222222222 -0.0044444444444444444 0.13599999999999998 -0.10044444444444445 0.043555555555555556 -0.17244444444444443 -0.6817777777777777 -0.4746666666666667 -1.6924444444444442 -1.2604444444444443 -2.0826666666666664 -1.4497777777777776 0 -0.14044444444444443 -0.10577777777777776 -0.6462222222222221 -0.21955555555555553 -0.7848888888888889l0.09244444444444444 -0.15466666666666665c0.2657777777777778 0.248 0.36177777777777775 0.22399999999999998 0.5031111111111111 0.2631111111111111 0.1511111111111111 0.12 0.20355555555555555 0.3022222222222222 0.3546666666666667 0.46844444444444444l0.1351111111111111 0.024888888888888887c-0.09333333333333332 -0.23733333333333334 -0.20977777777777776 -0.46755555555555556 -0.49244444444444446 -0.7759999999999999 0.14577777777777778 0.07288888888888889 0.38755555555555554 0.26755555555555555 0.5493333333333333 0.40888888888888886 0.10666666666666666 0.17866666666666667 0.13777777777777778 0.32088888888888883 0.23555555555555555 0.5448888888888889 0.07111111111111111 0.04533333333333333 0.144 0.21155555555555552 0.13422222222222221 0.07377777777777778 -0.016888888888888887 -0.25866666666666666 -0.1991111111111111 -0.6684444444444444 -0.1991111111111111 -0.6977777777777777 0.28977777777777775 0.22933333333333333 0.2862222222222222 0.5866666666666667 0.3742222222222222 0.8044444444444444 0.07377777777777778 0.11022222222222222 0.1111111111111111 0.2577777777777778 0.1431111111111111 0.2231111111111111l-0.08533333333333333 -0.6719999999999999 -0.049777777777777775 -0.24622222222222223c0.2142222222222222 0.12355555555555556 0.2906666666666667 0.5946666666666667 0.3911111111111111 1.16 0 0.08977777777777778 0.036444444444444446 0.18844444444444444 0.031111111111111114 0.24622222222222223 0.04622222222222222 0.056888888888888885 0.09866666666666667 0.2142222222222222 0.09777777777777777 0.12088888888888889 0 0 0 -0.9191111111111111 -0.0631111111111111 -1.1297777777777775 -0.015999999999999997 -0.11288888888888889 0.026666666666666665 -0.296 0.026666666666666665 -0.296 0.0782222222222222 0.3813333333333333 0.16177777777777777 0.7946666666666666 0.2408888888888889 1.175111111111111v0.27999999999999997l0.11733333333333333 0.11822222222222223c0.022222222222222223 -0.2311111111111111 0.048888888888888885 -0.46044444444444443 0.072 -0.6897777777777777l-0.088 -0.8222222222222222v-0.23466666666666666c-0.0017777777777777776 -0.08266666666666667 0.07555555555555556 -0.06755555555555555 0.12444444444444445 0.026666666666666665 0.011555555555555555 0.20177777777777778 0.011555555555555555 0.3591111111111111 0.01955555555555555 0.5599999999999999 0.034666666666666665 0.22933333333333333 0.058666666666666666 0.3973333333333333 0.07555555555555556 0.6897777777777777 0.009777777777777776 0.23644444444444446 0.020444444444444442 0.8035555555555556 0.07022222222222221 0.7937777777777777z" stroke-width="0.8889"></path>
</svg>