<svg width="12" height="11" viewBox="0 0 12 11" fill="none" xmlns="http://www.w3.org/2000/svg">
<path d="M10.2 1.77025H8.4V1.18017C8.4 0.867166 8.27357 0.566986 8.04853 0.345662C7.82348 0.124338 7.51826 0 7.2 0H4.8C4.48174 0 4.17652 0.124338 3.95147 0.345662C3.72643 0.566986 3.6 0.867166 3.6 1.18017V1.77025H1.8C1.32261 1.77025 0.864773 1.95676 0.527208 2.28874C0.189642 2.62073 0 3.071 0 3.5405V8.85124C0 9.32074 0.189642 9.77101 0.527208 10.103C0.864773 10.435 1.32261 10.6215 1.8 10.6215H10.2C10.6774 10.6215 11.1352 10.435 11.4728 10.103C11.8104 9.77101 12 9.32074 12 8.85124V3.5405C12 3.071 11.8104 2.62073 11.4728 2.28874C11.1352 1.95676 10.6774 1.77025 10.2 1.77025ZM4.8 1.18017H7.2V1.77025H4.8V1.18017ZM10.8 8.85124C10.8 9.00774 10.7368 9.15783 10.6243 9.26849C10.5117 9.37915 10.3591 9.44132 10.2 9.44132H1.8C1.64087 9.44132 1.48826 9.37915 1.37574 9.26849C1.26321 9.15783 1.2 9.00774 1.2 8.85124V5.54088L4.008 6.49091C4.07171 6.49941 4.13629 6.49941 4.2 6.49091H7.8C7.86507 6.48973 7.92967 6.4798 7.992 6.4614L10.8 5.54088V8.85124ZM10.8 4.2958L7.704 5.31074H4.296L1.2 4.2958V3.5405C1.2 3.384 1.26321 3.23391 1.37574 3.12324C1.48826 3.01258 1.64087 2.95041 1.8 2.95041H10.2C10.3591 2.95041 10.5117 3.01258 10.6243 3.12324C10.7368 3.23391 10.8 3.384 10.8 3.5405V4.2958Z" fill="#6A44B9"/>
</svg>
